#!OML:ASF H:\Pregnant\Project 1\Capture day 1\Session 1\femalepreg.ASF
:FULLY-SPECIFIED
:DEGREES
155
root 5.18234 15.7284 28.0462 -181.227 -86.8283 -161.404
lowerback -31.1542 -0.331676 -3.54054
upperback -3.66078 -0.103874 2.99244
thorax 12.2055 -0.447794 5.06004
lowerneck -9.54084 4.73182 5.20534
upperneck 29.3423 5.95353 -3.68966
head 11.3627 2.52627 -1.56402
rclavicle -2.23633e-015 -3.73715e-014
rhumerus 4.50649 54.0573 -94.9862
rradius 146.909
rwrist -41.8583
rhand -45.5659 -20.8351
rfingers 7.12502
rthumb -18.3282 -49.9916
lclavicle -2.23633e-015 -3.73715e-014
lhumerus 7.00857 -39.1379 98.2454
lradius 145.873
lwrist 44.8663
lhand -46.3996 -21.1711
lfingers 7.12502
lthumb -19.13 7.9081
rfemur -24.6961 19.023 20.0349
rtibia 27.3789
rfoot -15.6497 -15.6447
rtoes -2.57566
lfemur 0 0 0
ltibia 0
lfoot 0 0
ltoes 0
156
root 5.1817 15.7285 28.0438 -181.124 -86.8358 -161.496
lowerback -31.1522 -0.328403 -3.55964
upperback -3.65632 -0.0901922 2.9758
thorax 12.2077 -0.441933 5.05783
lowerneck -9.52901 4.72571 5.22356
upperneck 29.3123 5.94703 -3.70745
head 11.3496 2.52415 -1.57446
rclavicle -9.79014e-015 -1.55052e-014
rhumerus 4.52188 54.0188 -95.0021
rradius 146.899
rwrist -41.9003
rhand -45.58 -20.5703
rfingers 7.12502
rthumb -18.3417 -49.7256
lclavicle -9.79014e-015 -1.55052e-014
lhumerus 7.00761 -39.1374 98.2485
lradius 145.858
lwrist 44.9249
lhand -46.3873 -21.2108
lfingers 7.12502
lthumb -19.1181 7.8696
rfemur -24.7065 19.0057 20.0372
rtibia 27.3798
rfoot -15.6454 -15.6366
rtoes -2.60752
lfemur 0 0 0
ltibia 0
lfoot 0 0
ltoes 0
157
root 5.18098 15.7288 28.0413 -181.024 -86.8398 -161.578
lowerback -31.1582 -0.324095 -3.57563
upperback -3.65264 -0.0761805 2.95846
thorax 12.2124 -0.435911 5.05328
lowerneck -9.52595 4.71803 5.24875
upperneck 29.2879 5.93899 -3.73387
head 11.3409 2.52086 -1.58934
rclavicle 3.47873e-015 5.56597e-015
rhumerus 4.53202 53.9822 -95.0277
rradius 146.892
rwrist -41.939
rhand -45.5606 -20.3806
rfingers 7.12502
rthumb -18.323 -49.5376
lclavicle 3.47873e-015 5.56597e-015
lhumerus 7.00659 -39.1297 98.2732
lradius 145.851
lwrist 44.9652
lhand -46.3392 -21.1746
lfingers 7.12502
lthumb -19.0719 7.91034
rfemur -24.722 19.0381 20.0305
rtibia 27.3755
rfoot -15.6336 -15.6707
rtoes -2.63111
lfemur 0 0 0
ltibia 0
lfoot 0 0
ltoes 0
158
root 5.18013 15.7292 28.0389 -180.945 -86.8464 -161.638
lowerback -31.1644 -0.321209 -3.59086
upperback -3.64813 -0.0648132 2.94528
thorax 12.2185 -0.43119 5.05181
lowerneck -9.52394 4.71017 5.26013
upperneck 29.2599 5.93354 -3.75956
head 11.3306 2.5174 -1.6012
rclavicle -9.83984e-015 1.98785e-015
rhumerus 4.53742 53.9502 -95.0509
rradius 146.888
rwrist -41.974
rhand -45.5056 -20.2863
rfingers 7.12502
rthumb -18.2701 -49.4483
lclavicle -9.83984e-015 1.98785e-015
lhumerus 7.0115 -39.1221 98.2987
lradius 145.844
lwrist 44.9943
lhand -46.2965 -21.1413
lfingers 7.12502
lthumb -19.0308 7.94771
rfemur -24.734 19.06 20.0259
rtibia 27.3682
rfoot -15.6246 -15.6955
rtoes -2.65035
lfemur 0 0 0
ltibia 0
lfoot 0 0
ltoes 0
159
root 5.1792 15.7297 28.0364 -180.877 -86.8526 -161.689
lowerback -31.1707 -0.317063 -3.6051
upperback -3.64242 -0.0524918 2.93493
thorax 12.226 -0.426083 5.0533
lowerneck -9.52527 4.70051 5.2542
upperneck 29.2306 5.92797 -3.78095
head 11.3196 2.51253 -1.60845
rclavicle 2.03754e-015 -4.37326e-015
rhumerus 4.54152 53.9175 -95.0667
rradius 146.888
rwrist -42.0097
rhand -45.4099 -20.3139
rfingers 7.12502
rthumb -18.1781 -49.4845
lclavicle 2.03754e-015 -4.37326e-015
lhumerus 7.02224 -39.1157 98.329
lradius 145.838
lwrist 45.0124
lhand -46.2565 -21.1159
lfingers 7.12502
lthumb -18.9924 7.97685
rfemur -24.7439 19.0824 20.0221
rtibia 27.3605
rfoot -15.6184 -15.7175
rtoes -2.65499
lfemur 0 0 0
ltibia 0
lfoot 0 0
ltoes 0
160
root 5.17825 15.7301 28.0339 -180.81 -86.861 -161.741
lowerback -31.1754 -0.31723 -3.62041
upperback -3.63601 -0.0462157 2.93052
thorax 12.2344 -0.423929 5.05951
lowerneck -9.52646 4.69333 5.23024
upperneck 29.199 5.92878 -3.79855
head 11.3073 2.50907 -1.61038
rclavicle 8.94531e-015 -7.55382e-015
rhumerus 4.54267 53.8988 -95.0798
rradius 146.89
rwrist -42.0429
rhand -45.2987 -20.4012
rfingers 7.12502
rthumb -18.0711 -49.5817
lclavicle 8.94531e-015 -7.55382e-015
lhumerus 7.04145 -39.1035 98.3499
lradius 145.831
lwrist 45.0247
lhand -46.2263 -21.0926
lfingers 7.12502
lthumb -18.9633 8.00303
rfemur -24.7533 19.0869 20.0213
rtibia 27.3555
rfoot -15.6189 -15.7248
rtoes -2.6516
lfemur 0 0 0
ltibia 0
lfoot 0 0
ltoes 0
161
root 5.1773 15.7303 28.0315 -180.735 -86.8724 -161.804
lowerback -31.1743 -0.326919 -3.63732
upperback -3.63026 -0.05242 2.93052
thorax 12.2411 -0.427569 5.06652
lowerneck -9.52073 4.69383 5.20318
upperneck 29.1641 5.94121 -3.81561
head 11.2927 2.51067 -1.61018
rclavicle 1.04362e-015 1.19271e-015
rhumerus 4.5376 53.905 -95.105
rradius 146.889
rwrist -42.0712
rhand -45.1823 -20.5156
rfingers 7.12502
rthumb -17.9591 -49.7064
lclavicle 1.04362e-015 1.19271e-015
lhumerus 7.06468 -39.0768 98.3471
lradius 145.825
lwrist 45.0384
lhand -46.2143 -21.0824
lfingers 7.12502
lthumb -18.9518 8.01428
rfemur -24.76 19.0619 20.0252
rtibia 27.3543
rfoot -15.6249 -15.7076
rtoes -2.65647
lfemur 0 0 0
ltibia 0
lfoot 0 0
ltoes 0
162
root 5.17635 15.7305 28.0291 -180.653 -86.8863 -161.876
lowerback -31.1709 -0.334299 -3.65321
upperback -3.62441 -0.0553659 2.92644
thorax 12.2465 -0.429523 5.0698
lowerneck -9.5154 4.69204 5.17744
upperneck 29.1313 5.94828 -3.82678
head 11.2787 2.51065 -1.60875
rclavicle 4.47266e-015 -3.97569e-015
rhumerus 4.53312 53.911 -95.1317
rradius 146.887
rwrist -42.0868
rhand -45.0717 -20.6108
rfingers 7.12502
rthumb -17.8527 -49.8113
lclavicle 4.47266e-015 -3.97569e-015
lhumerus 7.09346 -39.0591 98.3282
lradius 145.818
lwrist 45.0614
lhand -46.22 -21.0983
lfingers 7.12502
lthumb -18.9573 7.99785
rfemur -24.766 19.0165 20.0317
rtibia 27.3565
rfoot -15.6375 -15.6734
rtoes -2.65144
lfemur 0 0 0
ltibia 0
lfoot 0 0
ltoes 0
